<svg width="21" height="21" viewBox="0 0 21 21" fill="none" xmlns="http://www.w3.org/2000/svg">
<g clip-path="url(#clip0)">
<path d="M18.6068 10.0128L10.9485 17.6711C10.0103 18.6093 8.7378 19.1364 7.41098 19.1364C6.08416 19.1364 4.81169 18.6093 3.87348 17.6711C2.93528 16.7329 2.4082 15.4604 2.4082 14.1336C2.4082 12.8068 2.93528 11.5343 3.87348 10.5961L11.5318 2.93779C12.1573 2.31232 13.0056 1.96094 13.8901 1.96094C14.7747 1.96094 15.623 2.31232 16.2485 2.93779C16.874 3.56326 17.2253 4.41158 17.2253 5.29612C17.2253 6.18067 16.874 7.02899 16.2485 7.65446L8.58182 15.3128C8.26908 15.6255 7.84492 15.8012 7.40265 15.8012C6.96038 15.8012 6.53622 15.6255 6.22348 15.3128C5.91075 15.0001 5.73506 14.5759 5.73506 14.1336C5.73506 13.6914 5.91075 13.2672 6.22348 12.9545L13.2985 5.88779" stroke="#999999" stroke-width="2" stroke-linecap="round" stroke-linejoin="round"/>
</g>
<defs>
<clipPath id="clip0">
<rect width="20" height="20" fill="white" transform="translate(0.740234 0.804688)"/>
</clipPath>
</defs>
</svg>
