<svg width="19" height="19" viewBox="0 0 19 19" fill="none" xmlns="http://www.w3.org/2000/svg">
<path d="M2.99023 5.30469H4.49023H16.4902" stroke="#999999" stroke-linecap="round" stroke-linejoin="round"/>
<path d="M6.74023 5.30469V3.80469C6.74023 3.40686 6.89827 3.02533 7.17957 2.74403C7.46088 2.46272 7.84241 2.30469 8.24023 2.30469H11.2402C11.6381 2.30469 12.0196 2.46272 12.3009 2.74403C12.5822 3.02533 12.7402 3.40686 12.7402 3.80469V5.30469M14.9902 5.30469V15.8047C14.9902 16.2025 14.8322 16.584 14.5509 16.8653C14.2696 17.1467 13.8881 17.3047 13.4902 17.3047H5.99023C5.59241 17.3047 5.21088 17.1467 4.92957 16.8653C4.64827 16.584 4.49023 16.2025 4.49023 15.8047V5.30469H14.9902Z" stroke="#999999" stroke-linecap="round" stroke-linejoin="round"/>
<path d="M11.2402 9.05469V13.5547" stroke="#999999" stroke-linecap="round" stroke-linejoin="round"/>
<path d="M8.24023 9.05469V13.5547" stroke="#999999" stroke-linecap="round" stroke-linejoin="round"/>
</svg>
