<svg width="16" height="17" viewBox="0 0 16 17" fill="none" xmlns="http://www.w3.org/2000/svg">
<path d="M14.4733 13.8313L11.9999 11.378C12.96 10.1809 13.4249 8.66149 13.2991 7.13216C13.1733 5.60282 12.4664 4.17981 11.3236 3.15572C10.1808 2.13163 8.68914 1.5843 7.15522 1.62627C5.62129 1.66824 4.16175 2.29633 3.0767 3.38138C1.99164 4.46644 1.36356 5.92598 1.32158 7.45991C1.27961 8.99383 1.82694 10.4855 2.85103 11.6283C3.87512 12.7711 5.29814 13.478 6.82747 13.6038C8.3568 13.7296 9.87621 13.2647 11.0733 12.3046L13.5266 14.758C13.5886 14.8204 13.6623 14.87 13.7436 14.9039C13.8248 14.9377 13.9119 14.9552 13.9999 14.9552C14.0879 14.9552 14.1751 14.9377 14.2563 14.9039C14.3376 14.87 14.4113 14.8204 14.4733 14.758C14.5934 14.6336 14.6606 14.4675 14.6606 14.2946C14.6606 14.1217 14.5934 13.9556 14.4733 13.8313ZM7.33327 12.3046C6.41029 12.3046 5.50804 12.0309 4.74061 11.5181C3.97318 11.0054 3.37504 10.2765 3.02183 9.42381C2.66862 8.57109 2.57621 7.63278 2.75627 6.72754C2.93634 5.82229 3.38079 4.99077 4.03344 4.33813C4.68608 3.68548 5.5176 3.24102 6.42285 3.06096C7.32809 2.88089 8.2664 2.97331 9.11913 3.32652C9.97185 3.67973 10.7007 4.27787 11.2135 5.0453C11.7262 5.81273 11.9999 6.71498 11.9999 7.63796C11.9999 8.87563 11.5083 10.0626 10.6331 10.9378C9.75793 11.813 8.57095 12.3046 7.33327 12.3046Z" fill="#999999"/>
</svg>
