<svg width="16" height="16" viewBox="0 0 16 16" fill="none" xmlns="http://www.w3.org/2000/svg">
<path d="M6.11288 8.47345L8.93955 11.3001C9.00152 11.3626 9.07526 11.4122 9.1565 11.446C9.23774 11.4799 9.32488 11.4973 9.41288 11.4973C9.50089 11.4973 9.58803 11.4799 9.66927 11.446C9.75051 11.4122 9.82424 11.3626 9.88622 11.3001C10.0104 11.1752 10.0801 11.0062 10.0801 10.8301C10.0801 10.654 10.0104 10.485 9.88622 10.3601L7.52622 8.00012L9.88622 5.64012C10.0104 5.51521 10.0801 5.34624 10.0801 5.17011C10.0801 4.99399 10.0104 4.82502 9.88622 4.70012C9.82392 4.63833 9.75005 4.58944 9.66882 4.55627C9.5876 4.52309 9.50062 4.50628 9.41288 4.50678C9.32514 4.50628 9.23817 4.52309 9.15694 4.55627C9.07572 4.58944 9.00184 4.63833 8.93955 4.70012L6.11288 7.52678C6.0504 7.58876 6.0008 7.66249 5.96696 7.74373C5.93311 7.82497 5.91568 7.91211 5.91568 8.00012C5.91568 8.08812 5.93311 8.17526 5.96696 8.2565C6.0008 8.33774 6.0504 8.41147 6.11288 8.47345Z" fill="#02506E"/>
</svg>
